<svg xmlns="http://www.w3.org/2000/svg" version="1.0" preserveAspectRatio="xMidYMid meet" viewBox="15.5 3.5 20 40">

<g transform="translate(0.000000,49.000000) scale(0.100000,-0.100000)" fill="#000000" stroke="none">
<path d="M250 360 l0 -94 -42 39 c-41 39 -34 22 10 -23 12 -12 22 -26 22 -30 0 -3 -19 -27 -42 -52 l-43 -45 40 38 c23 20 44 37 48 37 4 0 7 -39 7 -87 l0 -88 51 51 51 52 -46 48 -47 48 48 48 48 48 -53 53 -52 52 0 -95z m56 23 l35 -37 -41 -40 -40 -41 0 78 c0 42 3 77 6 77 3 0 21 -17 40 -37z m-3 -191 l37 -38 -40 -39 -40 -39 0 77 c0 42 1 77 3 77 2 0 20 -17 40 -38z"/>
</g>
</svg>