<svg xmlns="http://www.w3.org/2000/svg" version="1.0" preserveAspectRatio="xMidYMid meet" viewBox="13.04 8.08 42.59 26.82">

<g transform="translate(0.000000,41.000000) scale(0.100000,-0.100000)" fill="#ffffff" stroke="none">
<path d="M232 308 c-11 -13 -25 -35 -31 -50 -6 -17 -18 -28 -30 -28 -10 0 -25 -7 -32 -17 -13 -15 -12 -15 8 -5 12 7 31 12 42 12 15 0 21 6 21 24 0 30 34 73 63 79 20 4 21 4 1 6 -11 0 -30 -9 -42 -21z"/>
<path d="M308 323 c7 -3 16 -2 19 1 4 3 -2 6 -13 5 -11 0 -14 -3 -6 -6z"/>
<path d="M351 293 c8 -14 24 -23 39 -23 33 0 70 -26 70 -50 0 -10 5 -22 11 -26 8 -4 9 1 4 17 -9 32 -51 69 -77 69 -12 0 -30 8 -41 18 -19 17 -19 16 -6 -5z"/>
<path d="M491 187 c2 -1 13 -9 24 -17 19 -14 19 -14 6 3 -7 9 -18 17 -24 17 -6 0 -8 -1 -6 -3z"/>
<path d="M515 120 c-37 -38 -39 -39 -59 -22 -20 17 -20 17 0 -10 l19 -27 43 46 c53 57 50 67 -3 13z"/>
<path d="M148 83 c22 -22 30 -23 160 -21 l137 2 -141 5 c-104 5 -147 10 -161 21 -10 8 -8 5 5 -7z"/>
</g>
</svg>
