<svg xmlns="http://www.w3.org/2000/svg" version="1.0" preserveAspectRatio="xMidYMid meet" viewBox="13.43 10 34.57 22">

<g transform="translate(0.000000,44.000000) scale(0.100000,-0.100000)" fill="#ffffff" stroke="none">
<path d="M153 314 c-25 -38 -25 -130 0 -168 24 -36 33 -27 13 13 -20 39 -20 103 0 142 20 40 11 49 -13 13z"/>
<path d="M430 333 c0 -5 7 -17 15 -27 20 -26 20 -126 0 -152 -17 -22 -19 -34 -6 -34 16 0 41 67 41 110 0 43 -25 110 -41 110 -5 0 -9 -3 -9 -7z"/>
<path d="M212 280 c-16 -27 -15 -82 2 -106 19 -25 31 -12 16 16 -12 22 -10 58 5 93 10 23 -7 22 -23 -3z"/>
<path d="M386 275 c4 -16 7 -37 7 -45 0 -8 -3 -28 -7 -45 -7 -28 -7 -29 8 -11 9 11 16 36 16 56 0 20 -7 45 -16 56 -15 18 -15 17 -8 -11z"/>
<path d="M285 256 c-20 -15 -17 -45 7 -60 24 -15 61 19 48 44 -13 25 -35 31 -55 16z m35 -40 c-13 -13 -35 7 -25 24 5 8 11 8 21 -1 10 -8 12 -15 4 -23z"/>
</g>
</svg>
