<?xml version="1.0" standalone="no"?>
<!DOCTYPE svg PUBLIC "-//W3C//DTD SVG 20010904//EN"
 "http://www.w3.org/TR/2001/REC-SVG-20010904/DTD/svg10.dtd">
<svg version="1.0" xmlns="http://www.w3.org/2000/svg"
 width="24.000000pt" height="22.000000pt" viewBox="0 0 24.000000 22.000000"
 preserveAspectRatio="xMidYMid meet">

<g transform="translate(0.000000,22.000000) scale(0.100000,-0.100000)"
fill="#000000" stroke="none">
<path d="M30 181 c-20 -38 -13 -51 30 -51 39 0 40 1 40 35 0 32 -2 35 -30 35
-19 0 -33 -7 -40 -19z"/>
<path d="M120 166 c0 -36 0 -36 45 -36 l45 0 -13 33 c-11 25 -20 33 -45 35
-31 3 -32 2 -32 -32z"/>
<path d="M12 73 l3 -48 95 0 95 0 3 48 3 47 -101 0 -101 0 3 -47z"/>
</g>
</svg>
